<?xml version="1.0" encoding="utf-8"?>
<!-- Generator: Adobe Illustrator 19.0.0, SVG Export Plug-In . SVG Version: 6.00 Build 0)  -->
<svg version="1.1" id="图层_1" xmlns="http://www.w3.org/2000/svg" xmlns:xlink="http://www.w3.org/1999/xlink" x="0px" y="0px"
	 viewBox="-41 164.9 512 512" style="enable-background:new -41 164.9 512 512;" xml:space="preserve">
<style type="text/css">
	.st0{fill:#FFFFFF;}
</style>
<g id="icomoon-ignore">
</g>
<path class="st0" d="M174.1,581.8c-84.8,8.4-158-30-163.5-85.6c-5.5-55.7,58.8-107.5,143.5-115.9c84.8-8.4,158,30,163.4,85.6
	C323.1,521.6,258.8,573.5,174.1,581.8z M343.6,397.1c-7.2-2.2-12.2-3.6-8.4-13.1c8.2-20.6,9-38.3,0.1-51
	c-16.6-23.7-62.1-22.5-114.2-0.6c0,0-16.4,7.1-12.2-5.8c8-25.8,6.8-47.3-5.7-59.8c-28.3-28.3-103.5,1.1-168,65.6
	C-13,380.5-41,431.8-41,476.1c0,84.6,108.6,136.1,214.8,136.1c139.2,0,231.9-80.9,231.9-145.1C405.7,428.2,373,406.2,343.6,397.1
	L343.6,397.1z"/>
<path class="st0" d="M436.1,242.1c-33.6-37.3-83.2-51.5-129-41.8l0,0c-10.6,2.3-17.3,12.7-15,23.2c2.3,10.6,12.6,17.3,23.2,15
	c32.6-6.9,67.8,3.2,91.7,29.7s30.4,62.6,20.1,94.2l0,0c-3.3,10.3,2.3,21.3,12.6,24.7c10.3,3.3,21.3-2.3,24.7-12.6v-0.1
	C478.8,330.2,469.7,279.4,436.1,242.1L436.1,242.1z"/>
<path class="st0" d="M384.4,288.8c-16.4-18.2-40.6-25.1-62.8-20.3c-9.1,1.9-14.9,11-13,20.1c2,9.1,11,14.9,20,12.9l0,0
	c10.9-2.3,22.7,1.1,30.7,9.9c8,8.9,10.2,21,6.7,31.6l0,0c-2.8,8.8,2,18.4,10.9,21.3c8.9,2.8,18.4-2,21.3-10.9
	C405.2,331.7,400.8,306.9,384.4,288.8L384.4,288.8z"/>
<path class="st0" d="M178.8,481.1c-3,5.1-9.5,7.5-14.6,5.4c-5.1-2-6.6-7.8-3.7-12.7c3-4.9,9.3-7.3,14.3-5.4
	C179.8,470.2,181.6,475.9,178.8,481.1z M151.7,515.7c-8.2,13.1-25.8,18.8-39,12.8c-13-5.9-16.9-21.1-8.7-33.9
	c8.1-12.7,25.1-18.4,38.2-12.9C155.5,487.4,159.8,502.5,151.7,515.7z M182.5,423.1c-40.3-10.5-85.9,9.6-103.4,45.1
	c-17.9,36.2-0.6,76.5,40.1,89.7c42.2,13.6,92-7.3,109.3-46.3C245.6,473.3,224.3,434,182.5,423.1z"/>
</svg>
